<?xml version="1.0" encoding="iso-8859-1"?>
<!-- Generator: Adobe Illustrator 19.0.0, SVG Export Plug-In . SVG Version: 6.00 Build 0)  -->
<svg version="1.1" id="Capa_1" xmlns="http://www.w3.org/2000/svg" xmlns:xlink="http://www.w3.org/1999/xlink" x="0px" y="0px"
	 viewBox="0 0 512.001 512.001" style="enable-background:new 0 0 512.001 512.001;" xml:space="preserve">
<path style="fill:#0084FF;" d="M138.937,437.408h316.085c25.945,0,46.978-21.033,46.978-46.978v-15.712H299.486
	c0,14.841-12.031,26.871-26.871,26.871h-33.492c-14.841,0-26.871-12.031-26.871-26.871h-97.018
	C115.605,398.636,124.464,420.493,138.937,437.408z"/>
<path style="fill:#00C3FF;" d="M436.086,74.592H147.667v300.126h64.521c0,15.163,12.292,27.456,27.456,27.456h32.971
	c15.163,0,27.456-12.292,27.456-27.456h167.094V105.67C467.164,88.506,453.25,74.592,436.086,74.592z"/>
<rect x="89.21" y="117.25" style="fill:#FFFFFF;" width="336.96" height="215.41"/>
<rect x="151.5" y="162.61" style="fill:#FFD41D;" width="274.67" height="170.04"/>
<circle cx="145.46" cy="242" r="10"/>
<circle cx="202.57" cy="275.33" r="10"/>
<circle cx="259.46" cy="213.34" r="10"/>
<circle cx="315.22" cy="238.01" r="10"/>
<circle cx="370.34" cy="167.39" r="10"/>
<path d="M502,364.718H299.485c-5.522,0-10,4.477-10,10c0,9.303-7.568,16.871-16.871,16.871h-33.492
	c-9.303,0-16.871-7.568-16.871-16.871c0-5.523-4.478-10-10-10H54.836V105.67c0-11.623,9.456-21.078,21.078-21.078h360.172
	c11.622,0,21.078,9.456,21.078,21.078v192.523c0,5.523,4.478,10,10,10s10-4.477,10-10V105.67c0-22.65-18.428-41.078-41.078-41.078
	H75.914c-22.65,0-41.078,18.428-41.078,41.078v259.048H10c-5.522,0-10,4.477-10,10v15.712c0,31.418,25.561,56.978,56.979,56.978
	h398.043c31.418,0,56.979-25.56,56.979-56.978v-15.712C512,369.195,507.522,364.718,502,364.718z M492,390.43
	c0,20.39-16.589,36.978-36.979,36.978H56.979C36.589,427.408,20,410.82,20,390.43v-5.712h183.629
	c4.369,15.487,18.627,26.871,35.493,26.871h33.492c16.866,0,31.124-11.384,35.493-26.871H492V390.43z"/>
<path d="M426.17,107.246H89.212c-5.522,0-10,4.477-10,10v215.413c0,5.523,4.478,10,10,10H426.17c5.522,0,10-4.477,10-10V117.246
	C436.17,111.723,431.692,107.246,426.17,107.246z M416.17,322.659h-35.828V202.814c0-5.523-4.478-10-10-10s-10,4.477-10,10v119.845
	h-36.22v-44.496c0-5.523-4.478-10-10-10s-10,4.477-10,10v44.496h-36.22v-67.598c0-5.523-4.478-10-10-10s-10,4.477-10,10v67.598
	h-36.219v-9.653c0-5.523-4.478-10-10-10s-10,4.477-10,10v9.653h-36.22v-39.654c0-5.523-4.478-10-10-10s-10,4.477-10,10v39.654
	H99.212V127.246H416.17V322.659z"/>
<circle cx="465.99" cy="337.27" r="10"/>
<g>
</g>
<g>
</g>
<g>
</g>
<g>
</g>
<g>
</g>
<g>
</g>
<g>
</g>
<g>
</g>
<g>
</g>
<g>
</g>
<g>
</g>
<g>
</g>
<g>
</g>
<g>
</g>
<g>
</g>
</svg>
